# xmcd CD database file
#
# Track frame offsets:
#	150
#	12263
#	25594
#	36201
#	46644
#	60127
#	74196
#	89218
#	103711
#	117485
#	129190
#	142086
#	154253
#	166517
#	181074
#	195528
#
# Disc length: 2908 seconds
#
# Revision: 0
# Processed by: cddbd v1.5.1PL0 Copyright (c) Steve Scherf et al.
# Submitted via: CDex 1.50
#
DISCID=d00b5a10
DTITLE=Cachao y Su Ritmo Caliente - Monte Adentro
DYEAR=2000
DGENRE=Salsa
TTITLE0=Monte Adentro
TTITLE1=Goza Mi Trompeta
TTITLE2=Guajeo De Saxos
TTITLE3=Estudio En Trompeta
TTITLE4=A Gozar Timbero
TTITLE5=Trombon Criollo
TTITLE6=Malanga Amarilla
TTITLE7=Controversia De Metales
TTITLE8=Descarga Cubana
TTITLE9=Pamparana
TTITLE10=Sorpresa De Flauta
TTITLE11=Oye Mi Tres Montuno
TTITLE12=La Floresta
TTITLE13=Avance Juvenil
TTITLE14=Redencion
TTITLE15=Descarga Mambo
EXTD=YEAR: 2000
EXTT0=
EXTT1=
EXTT2=
EXTT3=
EXTT4=
EXTT5=
EXTT6=
EXTT7=
EXTT8=
EXTT9=
EXTT10=
EXTT11=
EXTT12=
EXTT13=
EXTT14=
EXTT15=
PLAYORDER=
